<svg width="910" height="532" viewBox="0 0 910 532" fill="none" xmlns="http://www.w3.org/2000/svg">
<rect x="28" width="862" height="529" rx="27" fill="#D9D9D9"/>
<path d="M484 111.1L466.025 109.55L459 93L451.975 109.575L434 111.1L447.65 122.925L443.55 140.5L459 131.175L474.45 140.5L470.375 122.925L484 111.1ZM459 126.5L449.6 132.175L452.1 121.475L443.8 114.275L454.75 113.325L459 103.25L463.275 113.35L474.225 114.3L465.925 121.5L468.425 132.2L459 126.5Z" fill="#01717A"/>
<path d="M569 111.1L551.025 109.55L544 93L536.975 109.575L519 111.1L532.65 122.925L528.55 140.5L544 131.175L559.45 140.5L555.375 122.925L569 111.1ZM544 126.5L534.6 132.175L537.1 121.475L528.8 114.275L539.75 113.325L544 103.25L548.275 113.35L559.225 114.3L550.925 121.5L553.425 132.2L544 126.5Z" fill="#01717A"/>
<path d="M654 110.1L636.025 108.55L629 92L621.975 108.575L604 110.1L617.65 121.925L613.55 139.5L629 130.175L644.45 139.5L640.375 121.925L654 110.1ZM629 125.5L619.6 131.175L622.1 120.475L613.8 113.275L624.75 112.325L629 102.25L633.275 112.35L644.225 113.3L635.925 120.5L638.425 131.2L629 125.5Z" fill="#01717A"/>
<path d="M399 111.1L381.025 109.55L374 93L366.975 109.575L349 111.1L362.65 122.925L358.55 140.5L374 131.175L389.45 140.5L385.375 122.925L399 111.1ZM374 126.5L364.6 132.175L367.1 121.475L358.8 114.275L369.75 113.325L374 103.25L378.275 113.35L389.225 114.3L380.925 121.5L383.425 132.2L374 126.5Z" fill="#01717A"/>
<path d="M314 110.1L296.025 108.55L289 92L281.975 108.575L264 110.1L277.65 121.925L273.55 139.5L289 130.175L304.45 139.5L300.375 121.925L314 110.1ZM289 125.5L279.6 131.175L282.1 120.475L273.8 113.275L284.75 112.325L289 102.25L293.275 112.35L304.225 113.3L295.925 120.5L298.425 131.2L289 125.5Z" fill="#01717A"/>
<path d="M185.496 208.195H155.943C155.403 204.372 154.301 200.976 152.637 198.007C150.973 194.993 148.836 192.429 146.227 190.315C143.618 188.201 140.604 186.582 137.186 185.457C133.812 184.333 130.146 183.771 126.188 183.771C119.036 183.771 112.806 185.547 107.498 189.101C102.191 192.609 98.0749 197.737 95.1511 204.484C92.2273 211.187 90.7655 219.328 90.7655 228.909C90.7655 238.76 92.2273 247.036 95.1511 253.739C98.1199 260.441 102.258 265.501 107.566 268.92C112.874 272.338 119.014 274.048 125.986 274.048C129.899 274.048 133.52 273.53 136.849 272.496C140.222 271.461 143.213 269.954 145.822 267.975C148.431 265.951 150.59 263.5 152.3 260.621C154.054 257.742 155.268 254.458 155.943 250.77L185.496 250.905C184.731 257.247 182.819 263.365 179.761 269.257C176.747 275.105 172.676 280.345 167.548 284.978C162.465 289.566 156.393 293.21 149.331 295.908C142.314 298.562 134.375 299.889 125.513 299.889C113.189 299.889 102.168 297.1 92.4523 291.523C82.7813 285.945 75.1345 277.871 69.5119 267.3C63.9343 256.73 61.1454 243.933 61.1454 228.909C61.1454 213.84 63.9792 201.021 69.6468 190.45C75.3145 179.88 83.0062 171.828 92.7221 166.295C102.438 160.718 113.368 157.929 125.513 157.929C133.52 157.929 140.942 159.054 147.779 161.303C154.661 163.552 160.756 166.835 166.064 171.153C171.372 175.427 175.69 180.667 179.018 186.874C182.392 193.082 184.551 200.189 185.496 208.195Z" fill="#01717A"/>
<path d="M323.68 228.909C323.68 243.978 320.824 256.797 315.111 267.368C309.443 277.938 301.707 286.013 291.901 291.59C282.14 297.123 271.165 299.889 258.975 299.889C246.695 299.889 235.675 297.1 225.914 291.523C216.153 285.945 208.438 277.871 202.771 267.3C197.103 256.73 194.269 243.933 194.269 228.909C194.269 213.84 197.103 201.021 202.771 190.45C208.438 179.88 216.153 171.828 225.914 166.295C235.675 160.718 246.695 157.929 258.975 157.929C271.165 157.929 282.14 160.718 291.901 166.295C301.707 171.828 309.443 179.88 315.111 190.45C320.824 201.021 323.68 213.84 323.68 228.909ZM294.06 228.909C294.06 219.148 292.598 210.917 289.674 204.215C286.796 197.512 282.725 192.429 277.462 188.966C272.199 185.502 266.037 183.771 258.975 183.771C251.913 183.771 245.75 185.502 240.487 188.966C235.225 192.429 231.131 197.512 228.208 204.215C225.329 210.917 223.889 219.148 223.889 228.909C223.889 238.67 225.329 246.902 228.208 253.604C231.131 260.306 235.225 265.389 240.487 268.852C245.75 272.316 251.913 274.048 258.975 274.048C266.037 274.048 272.199 272.316 277.462 268.852C282.725 265.389 286.796 260.306 289.674 253.604C292.598 246.902 294.06 238.67 294.06 228.909Z" fill="#01717A"/>
<path d="M451.73 159.818V298H426.496L366.379 211.029H365.367V298H336.152V159.818H361.791L421.436 246.722H422.65V159.818H451.73Z" fill="#01717A"/>
<path d="M516.878 299H467.894V160.818H517.283C531.182 160.818 543.147 163.585 553.178 169.117C563.209 174.605 570.923 182.499 576.321 192.8C581.763 203.1 584.485 215.425 584.485 229.774C584.485 244.168 581.763 256.538 576.321 266.884C570.923 277.229 563.164 285.168 553.043 290.701C542.967 296.234 530.912 299 516.878 299ZM497.109 273.968H515.664C524.3 273.968 531.564 272.439 537.457 269.38C543.394 266.276 547.848 261.486 550.816 255.009C553.83 248.486 555.337 240.075 555.337 229.774C555.337 219.563 553.83 211.219 550.816 204.742C547.848 198.265 543.417 193.497 537.524 190.438C531.632 187.38 524.367 185.85 515.731 185.85H497.109V273.968Z" fill="#01717A"/>
<path d="M475.501 457V318.818H530.018C540.499 318.818 549.428 320.82 556.804 324.823C564.181 328.781 569.804 334.292 573.672 341.354C577.586 348.371 579.542 356.467 579.542 365.643C579.542 374.82 577.563 382.916 573.605 389.933C569.647 396.95 563.911 402.415 556.4 406.329C548.933 410.242 539.892 412.199 529.276 412.199H494.528V388.786H524.553C530.176 388.786 534.809 387.819 538.452 385.885C542.141 383.906 544.884 381.184 546.684 377.721C548.528 374.212 549.45 370.187 549.45 365.643C549.45 361.055 548.528 357.052 546.684 353.634C544.884 350.17 542.141 347.494 538.452 345.604C534.764 343.67 530.086 342.703 524.418 342.703H504.716V457H475.501Z" fill="#FAFDFF"/>
<path d="M601.666 460V321.818H656.183C666.619 321.818 675.525 323.685 682.902 327.418C690.324 331.107 695.969 336.347 699.837 343.139C703.751 349.886 705.707 357.826 705.707 366.957C705.707 376.133 703.728 384.027 699.77 390.639C695.812 397.206 690.076 402.244 682.565 405.753C675.098 409.261 666.057 411.016 655.441 411.016H618.939V387.536H650.718C656.296 387.536 660.929 386.771 664.617 385.241C668.306 383.712 671.049 381.418 672.849 378.359C674.693 375.301 675.615 371.5 675.615 366.957C675.615 362.369 674.693 358.5 672.849 355.352C671.049 352.203 668.283 349.819 664.55 348.2C660.861 346.535 656.206 345.703 650.583 345.703H630.881V460H601.666ZM676.29 397.116L710.633 460H678.381L644.781 397.116H676.29Z" fill="#FAFDFF"/>
<path d="M851.68 390.909C851.68 405.978 848.824 418.797 843.111 429.368C837.443 439.938 829.707 448.013 819.901 453.59C810.14 459.123 799.165 461.889 786.975 461.889C774.695 461.889 763.675 459.1 753.914 453.523C744.153 447.945 736.438 439.871 730.771 429.3C725.103 418.73 722.269 405.933 722.269 390.909C722.269 375.84 725.103 363.021 730.771 352.45C736.438 341.88 744.153 333.828 753.914 328.295C763.675 322.718 774.695 319.929 786.975 319.929C799.165 319.929 810.14 322.718 819.901 328.295C829.707 333.828 837.443 341.88 843.111 352.45C848.824 363.021 851.68 375.84 851.68 390.909ZM822.06 390.909C822.06 381.148 820.598 372.917 817.674 366.215C814.796 359.512 810.725 354.429 805.462 350.966C800.199 347.502 794.037 345.771 786.975 345.771C779.913 345.771 773.75 347.502 768.487 350.966C763.225 354.429 759.131 359.512 756.208 366.215C753.329 372.917 751.889 381.148 751.889 390.909C751.889 400.67 753.329 408.902 756.208 415.604C759.131 422.306 763.225 427.389 768.487 430.852C773.75 434.316 779.913 436.048 786.975 436.048C794.037 436.048 800.199 434.316 805.462 430.852C810.725 427.389 814.796 422.306 817.674 415.604C820.598 408.902 822.06 400.67 822.06 390.909Z" fill="#FAFDFF"/>
<path d="M680.06 161.818H709.275V251.555C709.275 261.631 706.868 270.447 702.056 278.004C697.288 285.561 690.608 291.454 682.016 295.682C673.425 299.865 663.417 301.957 651.992 301.957C640.521 301.957 630.491 299.865 621.899 295.682C613.308 291.454 606.628 285.561 601.86 278.004C597.092 270.447 594.708 261.631 594.708 251.555V161.818H623.923V249.059C623.923 254.322 625.07 259 627.364 263.093C629.703 267.186 632.987 270.402 637.215 272.741C641.444 275.081 646.369 276.25 651.992 276.25C657.659 276.25 662.585 275.081 666.768 272.741C670.996 270.402 674.257 267.186 676.551 263.093C678.89 259 680.06 254.322 680.06 249.059V161.818Z" fill="#01717A"/>
</svg>
