<svg width="296" height="250" viewBox="0 0 296 250" fill="none" xmlns="http://www.w3.org/2000/svg">
<path d="M257.5 60.5V156C257.5 161.642 257.498 165.723 257.236 168.932C256.976 172.113 256.473 174.217 255.593 175.945C253.915 179.238 251.238 181.915 247.945 183.593C246.217 184.473 244.113 184.976 240.932 185.236C237.723 185.498 233.642 185.5 228 185.5H32C26.3582 185.5 22.2772 185.498 19.0676 185.236C15.8872 184.976 13.7831 184.473 12.0552 183.593C8.76233 181.915 6.08517 179.238 4.40739 175.945C3.52695 174.217 3.02403 172.113 2.76418 168.932C2.50194 165.723 2.5 161.642 2.5 156V28.5V16.5C2.5 8.76801 8.76801 2.5 16.5 2.5H66H116.25C122.739 2.5 128 7.76065 128 14.25C128 23.5008 135.499 31 144.75 31H228C233.642 31 237.723 31.0019 240.932 31.2642C244.113 31.524 246.217 32.027 247.945 32.9074C251.238 34.5852 253.915 37.2623 255.593 40.5552C256.473 42.2831 256.976 44.3872 257.236 47.5676C257.498 50.7772 257.5 54.8582 257.5 60.5Z" fill="white" stroke="black" stroke-width="5" stroke-linejoin="round"/>
<rect x="15.5" y="132.5" width="73" height="20" rx="10" stroke="black" stroke-width="5"/>
<path d="M208.99 82.5L260.952 172.5C266.725 182.5 259.509 195 247.962 195H144.038C132.491 195 125.275 182.5 131.048 172.5L183.01 82.5C188.783 72.5 203.217 72.5 208.99 82.5Z" fill="white" stroke="#01717A" stroke-width="10"/>
<rect x="189" y="102" width="14" height="51" rx="7" fill="#01717A" fill-opacity="0.51"/>
<circle cx="196" cy="169" r="6" fill="#7DB7BB"/>
</svg>
